<?xml version="1.0" encoding="utf-8"?>
<!-- Generator: Adobe Illustrator 19.2.1, SVG Export Plug-In . SVG Version: 6.00 Build 0)  -->
<svg version="1.1" id="Layer_1" xmlns="http://www.w3.org/2000/svg"  x="0px" y="0px"
	 viewBox="0 0 1000 1000" style="enable-background:new 0 0 1000 1000;" xml:space="preserve">
<style type="text/css">
	.st0{opacity:0.7;}
	.st1{fill:none;}
	.st2{fill:#FFFFFF;}
	.st3{fill:#FCFCFC;}
</style>
<g class="st0">

		<ellipse transform="matrix(0.594 -0.8045 0.8045 0.594 -201.2112 606.1727)" class="st1" cx="499.9" cy="502.4" rx="498.9" ry="498.9"/>
	<path class="st1" d="M796.3,101.2L203.8,903.8c221.5,163.6,534,116.6,697.5-105C1064.9,577.1,1017.9,264.8,796.3,101.2z"/>
	<g>
		<path class="st2" d="M468,4.7C454,5.6,439.8,7,425.7,9c-116.5,17.5-217.3,74-291.6,154.4c-40.4,115.2-0.8,239.6,93.1,310.4
			c78.9,59.4,183.9,71.7,274.5,32.1l2.6-4.2c-92.7-34.3-159.7-116-175.4-213.5C310.9,175.3,364.8,61.4,468,4.7z"/>
		<path class="st2" d="M2.3,534.3c0.9,14.1,2.3,28.2,4.4,42.3C24.2,693.1,80.7,794,161,868.2c115.2,40.4,239.6,0.8,310.4-93.1
			c59.4-78.9,71.7-183.9,32.1-274.5l-4.2-2.6c-34.3,92.7-116,159.7-213.5,175.4C172.9,691.5,59,637.5,2.3,534.3z"/>
		<path class="st2" d="M501.2,494.4c36.9-89.8,118.6-153.5,214.9-167c113.9-16,227.3,40.9,281.7,146.3c-0.9-15.1-2.4-30.2-4.7-45.5
			C974.5,303.9,911.4,197.4,822.5,122c-110.9-28.9-225.9,13.4-291.5,104C474.5,304.2,463.5,406,501.2,494.4z"/>
	</g>
	<g>
		<path class="st2" d="M508,503.7c89.8,36.9,153.5,118.6,167,214.9c16,113.9-40.9,227.3-146.3,281.7c15.1-0.9,30.2-2.4,45.5-4.7
			C698.5,977,804.9,913.9,880.3,825c28.9-110.9-13.4-225.9-104-291.5C698.2,477,596.3,465.8,508,503.7z"/>
		<path class="st2" d="M503.6,500.7l-1.6-0.9l-7.2,9.9c-16.7,40.9-42.8,76.2-76.2,103.2L219.8,882.2
			C430.3,907.4,588.3,694.2,503.6,500.7z"/>
		<path class="st2" d="M822.6,122.1c-12.2-3.2-24.3-5.3-36.5-6.9L591.6,378.6C726.9,279.3,919.7,322,998,473.7
			C989.8,334.8,925.8,209.6,822.6,122.1z"/>
	</g>
</g>
<rect x="190.9" y="261.1" class="st1" width="730" height="409.3"/>
<g class="st0">

		<ellipse transform="matrix(0.8236 -0.5672 0.5672 0.8236 -196.782 372.2372)" class="st1" cx="499.9" cy="502.4" rx="498.9" ry="498.9"/>
	<path class="st1" d="M910.8,219.6L89.2,785.5c156.2,226.8,466.9,284.1,693.7,127.9C1009.8,757,1067,446.4,910.8,219.6z"/>
	<g>
		<path class="st2" d="M631.8,21.4c-13.6-3.7-27.4-7-41.5-9.7C474.6-9.7,360.8,11,264.4,62.8c-75.8,95.8-78.8,226.3-13,323.8
			c55.3,81.9,150.5,127.7,249.1,119.7l3.9-3.1c-76.5-62.6-113.3-161.6-96.3-259C427.7,131.5,515.8,41.5,631.8,21.4z"/>
		<path class="st2" d="M19.1,370.5c-3.7,13.6-7,27.4-9.7,41.5c-21.4,115.8-0.8,229.6,51,325.9c95.8,75.8,226.3,78.8,323.8,13
			c81.9-55.3,127.7-150.5,119.7-249.1l-3.1-3.9c-62.6,76.5-161.6,113.3-259,96.3C129.2,574.7,39.1,486.5,19.1,370.5z"/>
		<path class="st2" d="M503.8,495.2c64.2-72.9,162.1-106.5,257.6-88C874.3,429.2,963,520,980.1,637.3c4.1-14.6,7.6-29.3,10.4-44.5
			c22.7-123.6-2.2-244.8-61.8-345c-95.4-63.4-217.9-60.9-309.4,3.4C540.4,306.7,496.9,399.4,503.8,495.2z"/>
	</g>
	<g>
		<path class="st2" d="M507.2,506.3c72.9,64.2,106.5,162.1,88,257.6c-21.9,112.9-112.7,201.6-230.1,218.7
			c14.6,4.1,29.3,7.6,44.5,10.4c123.6,22.7,244.8-2.2,345-61.8c63.4-95.4,60.9-217.9-3.4-309.4C695.7,542.9,603,499.2,507.2,506.3z"
			/>
		<path class="st2" d="M504,502l-1.2-1.4l-10.1,7c-29.1,33.2-65.3,58.1-105.6,72.8L111.4,770.3C302.2,862.6,521,712.5,504,502z"/>
		<path class="st2" d="M928.9,247.9c-10.5-7-21.2-12.9-32.3-18.4L626.9,415.1c160.3-49.8,328.7,53.3,353.3,222.3
			C1017.6,503.4,997.9,364.2,928.9,247.9z"/>
	</g>
</g>
<circle class="st3" cx="502.8" cy="500.6" r="19.8"/>
</svg>
